<svg xmlns="http://www.w3.org/2000/svg" width="48" height="48"><defs><linearGradient id="a" x1="15.989" x2="14.61" y1="-1381.103" y2="-1344.939" gradientTransform="matrix(1 0 0 -1 0 -1338)" gradientUnits="userSpaceOnUse"><stop offset=".5" stop-color="#758195"/><stop offset="1" stop-color="#2c3e5d"/></linearGradient><linearGradient id="b" x1="42.41" x2="26.383" y1="-1364.285" y2="-1380.855" gradientTransform="matrix(1 0 0 -1 0 -1338)" gradientUnits="userSpaceOnUse"><stop offset="0" stop-color="#596a85"/><stop offset="1" stop-color="#2c3e5d"/></linearGradient><linearGradient id="c" x1="33.051" x2="33.051" y1="-1344.595" y2="-1362.696" gradientTransform="matrix(1 0 0 -1 0 -1338)" gradientUnits="userSpaceOnUse"><stop offset="0" stop-color="#758195"/><stop offset=".59" stop-color="#758195"/><stop offset="1" stop-color="#596a85"/></linearGradient><linearGradient id="d" x1="6.061" x2="32.268" y1="-1363.546" y2="-1363.546" gradientTransform="matrix(1 0 0 -1 0 -1338)" gradientUnits="userSpaceOnUse"><stop offset=".26" stop-color="#758195"/><stop offset="1" stop-color="#2c3e5d"/></linearGradient><linearGradient id="e" x1="34.606" x2="40.329" y1="-1367.776" y2="-1361.691" gradientTransform="matrix(1 0 0 -1 0 -1338)" gradientUnits="userSpaceOnUse"><stop offset="0" stop-color="#2c3e5d"/><stop offset="1" stop-color="#596a85"/></linearGradient><linearGradient id="f" x1="28.22" x2="28.22" y1="-1380.797" y2="-1346.209" gradientTransform="matrix(1 0 0 -1 0 -1338)" gradientUnits="userSpaceOnUse"><stop offset=".36" stop-color="#758195"/><stop offset="1" stop-color="#2c3e5d"/></linearGradient><linearGradient id="g" x1="19.633" x2="19.633" y1="-1380.797" y2="-1346.223" gradientTransform="matrix(1 0 0 -1 0 -1338)" gradientUnits="userSpaceOnUse"><stop offset=".06" stop-color="#758195"/><stop offset=".58" stop-color="#2c3e5d"/><stop offset="1" stop-color="#758195"/></linearGradient></defs><path fill="none" d="M.095 0h48v48h-48z"/><path fill="url(#a)" d="M24 42.797c-9.984 0-18.102-8.118-18.102-18.102S14.016 6.595 24 6.595v2.882c-8.396 0-15.219 6.823-15.219 15.219S15.604 39.915 24 39.915v2.882Z"/><path fill="url(#b)" d="M24 42.798v-2.882c8.396 0 15.219-6.823 15.219-15.219h2.882c0 9.984-8.118 18.102-18.102 18.102Z"/><path fill="url(#c)" d="M42.101 24.695h-2.882c0-8.396-6.823-15.219-15.219-15.219V6.594c9.984 0 18.102 8.118 18.102 18.102Z"/><path fill="url(#d)" d="M31.711 30.238c-1.922-.376-3.439-1.058-5.96-2.2-.696-.306-1.462-.654-2.339-1.044a87.472 87.472 0 0 0-1.504-.654c-3.801-1.685-5.89-2.604-8.452-2.604-1.796 0-3.147.487-3.899 1.406a2.583 2.583 0 0 0-.571 2.172l-2.827.543a5.506 5.506 0 0 1 1.17-4.553c.919-1.114 2.729-2.451 6.127-2.451 3.175 0 5.737 1.142 9.622 2.855.473.209.961.432 1.49.654.891.39 1.671.738 2.367 1.058 2.409 1.086 3.732 1.685 5.333 1.991l-.557 2.827Z"/><path fill="url(#e)" d="M34.525 30.515c-.961 0-1.88-.084-2.813-.278l.557-2.827c.752.153 1.49.223 2.256.223 1.782 0 3.133-.446 3.913-1.295.78-.849.808-1.88.766-2.423l2.868-.251c.153 1.754-.376 3.398-1.504 4.623-.933 1.016-2.729 2.228-6.043 2.228Z"/><path fill="url(#f)" d="M24 42.797v-2.882c4.136 0 6.6-4.219 6.6-11.279s-2.506-12.978-7.644-18.45l2.103-1.977c5.667 6.029 8.424 12.713 8.424 20.427 0 8.731-3.634 14.161-9.483 14.161Z"/><path fill="url(#g)" d="M23.998 42.797c-6.224 0-9.789-5.068-9.789-13.91 0-10.318 4.512-16.083 8.731-20.664l2.117 1.949c-4.915 5.347-7.965 10.332-7.965 18.714 0 9.12 3.76 11.028 6.907 11.028v2.882Z"/><path fill="#758195" d="M16.284 26.199a3.37 3.37 0 1 0 0-6.74 3.37 3.37 0 0 0 0 6.74ZM31.862 32.006a3.37 3.37 0 1 0 0-6.74 3.37 3.37 0 0 0 0 6.74ZM23.997 11.941a3.37 3.37 0 1 0 0-6.74 3.37 3.37 0 0 0 0 6.74Z"/></svg>